
        <svg xmlns="http://www.w3.org/2000/svg" xmlns:xlink="http://www.w3.org/1999/xlink" version="1.1" width="3162.0747779474004" 
        height="1387.6060437562696" viewBox="0 0 3162.0747779474004 1387.6060437562696">
			<rect fill="#355c7d" width="3162.0747779474004" height="1387.6060437562696"/>
			<g transform="scale(8.103738897370022) translate(10, 10)">
				<defs id="SvgjsDefs1249"></defs><g id="SvgjsG1250" featureKey="symbolFeature-0" transform="matrix(0.9963537223491975,0,0,0.9963537223491975,0,26)" fill="#ffffff"><path xmlns="http://www.w3.org/2000/svg" d="M19.178,81.376l27.972-5.059c0.036-0.34,0.052-0.7,0.052-1.058v-2.707l-29.334,5.289  C18.122,79.099,18.571,80.281,19.178,81.376z"></path><polygon xmlns="http://www.w3.org/2000/svg" points="17.601,75.156 47.208,69.811 47.208,66.063 17.601,71.389 "></polygon><path xmlns="http://www.w3.org/2000/svg" d="M23.821,86.165v5.754h17.177v-5.754c2.621-1.577,4.626-4.054,5.597-6.995l-25.679,4.626  C21.759,84.732,22.726,85.519,23.821,86.165z"></path><path xmlns="http://www.w3.org/2000/svg" d="M17.601,58.104v10.562l29.603-5.346v-5.216"></path><path xmlns="http://www.w3.org/2000/svg" d="M32.018,64.033C14.363,64.033,0,49.671,0,32.019C0,14.363,14.363,0,32.018,0c17.653,0,32.016,14.363,32.016,32.019  C64.034,49.671,49.671,64.033,32.018,64.033z M32.018,3C16.018,3,3,16.018,3,32.019c0,15.999,13.018,29.014,29.018,29.014  c15.999,0,29.016-13.016,29.016-29.014C61.034,16.018,48.017,3,32.018,3z"></path><path xmlns="http://www.w3.org/2000/svg" d="M32.812,60.474c-0.244,0-0.488-0.088-0.681-0.268c-1.002-0.931-5.942-5.738-4.683-8.972  c0.126-0.323,0.305-0.614,0.535-0.872c-0.506-1-0.853-2.331-0.853-4.101c0-0.93,0.222-1.72,0.637-2.337  c-0.692-1.132-1.176-2.69-1.176-4.833c0-0.552,0.448-1,1-1s1,0.448,1,1c0,1.461,0.258,2.663,0.771,3.597  c0.373-0.139,0.787-0.226,1.239-0.258c2.284-0.159,5.754,1.2,5.964,2.683c0.033,0.229,0.04,0.817-0.611,1.28  c-0.951,0.677-3.46,1-5.697-0.153c-0.344-0.177-0.702-0.4-1.053-0.681c-0.045,0.194-0.072,0.426-0.072,0.704  c0,1.215,0.19,2.236,0.562,3.045c0.832-0.281,1.872-0.426,3.115-0.433c2.802-0.009,4.352,0.472,4.793,1.527  c0.253,0.604,0.085,1.286-0.45,1.823c-1.146,1.152-4.021,1.771-6.314,0.827c-0.457-0.188-1.015-0.494-1.559-0.982  c-0.399,1.51,2.244,4.841,4.216,6.672c0.404,0.375,0.428,1.008,0.052,1.413C33.348,60.367,33.081,60.474,32.812,60.474z   M31.178,50.996c0.234,0.136,0.487,0.245,0.76,0.329c1.353,0.415,2.69,0.098,3.377-0.233c-0.433-0.109-1.226-0.223-2.499-0.217  C32.2,50.877,31.65,50.919,31.178,50.996z M31.081,44.414c0.021,0.012,0.043,0.023,0.065,0.035c0.852,0.446,1.731,0.571,2.432,0.551  C32.862,44.698,31.921,44.429,31.081,44.414z"></path><path xmlns="http://www.w3.org/2000/svg" d="M27.961,61.761c-0.604,0-1.172-0.366-1.401-0.963L15.359,31.58c-0.297-0.774,0.09-1.641,0.863-1.938  c0.776-0.296,1.642,0.091,1.938,0.863l11.201,29.218c0.297,0.773-0.09,1.642-0.863,1.938C28.321,61.73,28.139,61.761,27.961,61.761z  "></path><path xmlns="http://www.w3.org/2000/svg" d="M37.946,61.518c-0.086,0-0.173-0.007-0.261-0.022c-0.815-0.143-1.361-0.92-1.219-1.736l5.112-29.218  c0.144-0.816,0.918-1.36,1.736-1.219c0.815,0.143,1.361,0.92,1.219,1.736l-5.112,29.219C39.293,61.005,38.661,61.518,37.946,61.518z  "></path><path xmlns="http://www.w3.org/2000/svg" d="M27.99,36.84l-3.665-5.19l-1.614,1.776l-5.358,0.093c-0.823-0.016-1.511-0.646-1.526-1.474  c-0.014-0.828,0.646-1.511,1.474-1.526l4.062-0.07l3.256-3.582l2.985,4.226l1.741-3.337l2.952,2.861l2.419-2.957l2.266,3.271  l1.527-1.637l4.499,0.586c0.821,0.107,1.4,0.86,1.293,1.681s-0.851,1.404-1.682,1.293l-2.97-0.387l-3.016,3.232l-2.117-3.059  l-1.964,2.4l-2.408-2.333L27.99,36.84z"></path></g><g id="SvgjsG1251" featureKey="nameFeature-0" transform="matrix(4.709404385663762,0,0,4.709404385663762,82.53300292933555,-56.36746227116439)" fill="#ffffff"><path d="M11.12 35.519999999999996 c0.24 -0.52 0.8 -0.36 0.72 -0.16 c-1.88 4.48 -6.16 8.2 -7.36 8.2 c-0.12 0 -0.2 -0.04 -0.24 -0.04 c-0.2 -0.04 -0.64 -0.24 -0.64 -0.96 c-0.04 -1.04 0.76 -2.56 1.64 -4.28 c0.52 -1.08 1.04 -2.2 1.32 -3.08 c0.32 -0.88 0.24 -1.36 0.2 -1.48 c-1.12 -0.32 -2.88 2.52 -3.8 4.08 c-0.96 1.56 -1.36 2.2 -2 2.08 c-0.16 0 -0.48 -0.12 -0.6 -0.68 c-0.4 -1.88 1.8 -5.56 2 -5.96 c0 0 0.28 -0.96 1.2 -0.32 c0.44 0.28 -0.36 0.84 -0.36 0.84 c-0.6 1.04 -1.4 2.84 -1.64 4.12 c0.12 -0.24 0.28 -0.48 0.4 -0.68 c1.4 -2.32 3.32 -5.44 5.36 -4.48 l0.08 0.04 l0.08 0.04 c1.12 0.96 0.04 3.2 -1.2 5.8 c-0.64 1.28 -1.32 2.72 -1.48 3.6 c1.2 0.16 4.48 -2.88 6.32 -6.68 z M23.131999999999998 34.2 c0.36 0.28 -0.16 0.6 -0.16 0.6 c-0.32 0.36 -4.8 5.48 -8.16 5.16 c-0.12 0 -0.24 -0.04 -0.36 -0.04 c-0.4 -0.08 -0.92 -0.36 -1.24 -1.12 c-0.88 -2.24 0.56 -4.6 2.28 -5.88 c1.08 -0.8 2.04 -1 2.6 -0.52 c0.28 0.2 0.44 0.52 0.4 0.88 c-0.04 1.2 -2.24 2.8 -2.92 3.24 c0 0 -0.28 0.08 -0.6 -0.24 c-0.32 -0.36 -0.04 -0.72 -0.04 -0.72 c1.2 -0.8 2.28 -1.84 2.4 -2.28 c-0.24 0 -0.96 0.28 -1.8 1.12 c-0.96 1 -1.8 2.56 -1.24 3.96 c0.56 1.08 2.04 0.52 3.24 0.04 c1.28 -0.48 4.04 -2.92 4.68 -3.68 c0 0 0.4 -1 0.92 -0.52 z M60.824 17.44 c0.68 0.28 -0.16 0.96 -0.44 0.84 l-0.04 0 c-4.28 -1.84 -16.52 -2.16 -26.2 -1.8 c-4.48 8.2 -10.64 19.6 -10.36 26.12 c0.04 0.28 0.12 0.56 0.28 0.64 c1.52 0.76 4.36 -5.04 5.4 -6.64 c0 0 0.36 -0.96 0.88 -0.52 c0.36 0.32 -0.12 0.6 -0.12 0.6 c-0.52 0.6 -4.2 7.52 -5.92 7.4 c-1.6 -0.12 -1.64 -1.48 -1.64 -1.48 c-0.24 -6.76 5.56 -17.56 10 -26 c-6.64 0.28 -11.92 0.92 -12.04 0.96 c0 0 -0.64 -0.28 -0.64 -0.72 c0 -0.6 0.76 -0.8 0.76 -0.8 c0.56 0 5.96 -0.36 12.64 -0.52 c1.04 -2 1.6 -2.88 1.72 -3.12 c0 0 0.52 -0.64 1.2 -0.36 c0.52 0.24 0.32 0.92 0.32 0.92 c0 0.04 -0.72 0.72 -1.72 2.52 c9.56 -0.2 21.48 0.04 25.92 1.96 z"></path></g>
			</g>
		</svg>
	